<?xml version="1.0" encoding="iso-8859-1"?>
<!-- Uploaded to: SVG Repo, www.svgrepo.com, Generator: SVG Repo Mixer Tools -->
<svg height="800px" width="800px" version="1.1" id="Capa_1" xmlns="http://www.w3.org/2000/svg" xmlns:xlink="http://www.w3.org/1999/xlink" 
	 viewBox="0 0 58 58" xml:space="preserve">
<circle style="fill:#556080;" cx="29" cy="29" r="29"/>
<path style="fill:#FDD7AD;" d="M0.072,30.942c0.011,0.167,0.024,0.333,0.038,0.498c0.049,0.583,0.111,1.162,0.194,1.735
	c0.008,0.059,0.014,0.118,0.022,0.177c0.095,0.628,0.214,1.247,0.348,1.86c0.032,0.146,0.067,0.292,0.101,0.438
	c0.127,0.542,0.268,1.078,0.425,1.608c0.023,0.077,0.043,0.156,0.066,0.233c0.185,0.603,0.39,1.196,0.613,1.782
	c0.042,0.112,0.088,0.223,0.132,0.334c0.206,0.523,0.425,1.039,0.66,1.546c0.033,0.072,0.064,0.144,0.098,0.216
	c0.273,0.578,0.565,1.145,0.875,1.701c0.036,0.064,0.073,0.127,0.109,0.19c0.293,0.517,0.601,1.025,0.925,1.522
	c0.034,0.052,0.067,0.106,0.101,0.158c0.362,0.549,0.741,1.086,1.139,1.608c0.006,0.008,0.013,0.016,0.019,0.024
	c0.394,0.515,0.805,1.016,1.232,1.503c0.027,0.031,0.053,0.062,0.08,0.093c0.882,0.999,1.831,1.937,2.842,2.807
	c0.015,0.013,0.03,0.026,0.044,0.039c1.024,0.878,2.11,1.686,3.251,2.417c0.004,0.002,0.007,0.005,0.011,0.007
	c1.148,0.735,2.352,1.391,3.603,1.96h0V47c5.417,4.583,17,0,17,0c8.167,0,10-5,10-5c2.368-2.177,3.012-5.403,3.001-8.31
	c-0.01-2.933-0.908-5.767-2.277-8.361C43.907,23.782,43,20.95,43,16c0-9-12-8-12-8c-5.792-1.938-8.119-0.57-9.344,1.047
	c-1.183,1.562-0.688,3.917,0.841,5.457C24.785,16.806,25.797,20.516,29,19c2.071-0.98,6-2,6-2v4c-1.044,1.044-1.556,2.54-1.801,3.88
	c-0.155,0.848-0.905,1.348-1.685,1.332C30.078,24.845,28.139,24,26,24c-0.336,0-0.666,0.027-0.992,0.068
	c-1.075,0.078-1.989,0.421-2.728,0.852c-0.519,0.273-1.003,0.601-1.447,0.977c-0.664,0.285-1.468,0.114-1.948-0.475
	C15.105,20.788,11.363,20.083,9,20c-0.025-0.001-0.622-0.002-1.292-0.002C6.765,19.997,6,19.232,6,18.289l0-6.571
	c0-0.118-0.155-0.171-0.226-0.076C2.715,15.73,0.704,20.647,0.154,26h0.02C0.071,26.988,0,27.985,0,29
	C0,29.653,0.029,30.3,0.072,30.942z"/>
<path style="fill:#FAC176;" d="M33.414,30c-0.396,0-0.77-0.235-0.927-0.624C31.409,26.718,28.863,25,26,25s-5.409,1.718-6.486,4.376
	c-0.208,0.512-0.789,0.76-1.302,0.551c-0.512-0.207-0.759-0.79-0.551-1.303C19.044,25.208,22.318,23,26,23s6.956,2.208,8.34,5.624
	c0.208,0.513-0.04,1.096-0.551,1.303C33.666,29.977,33.539,30,33.414,30z"/>
<path style="fill:#FAC176;" d="M17.999,49c-0.206,0-0.414-0.063-0.592-0.195l-0.16-0.114C16.197,47.941,13,45.664,13,41
	c0-0.553,0.448-1,1-1s1,0.447,1,1c0,3.634,2.476,5.397,3.408,6.062l0.186,0.134c0.444,0.327,0.54,0.953,0.212,1.397
	C18.609,48.859,18.306,49,17.999,49z"/>
</svg>