<svg xmlns="http://www.w3.org/2000/svg" xmlns:xlink="http://www.w3.org/1999/xlink" width="399" zoomAndPan="magnify" viewBox="0 0 299.25 296.250004" height="395" preserveAspectRatio="xMidYMid meet" version="1.0"><defs><g/><clipPath id="63c1bae9e4"><path d="M 44.949219 73 L 187 73 L 187 207.972656 L 44.949219 207.972656 Z M 44.949219 73 " clip-rule="nonzero"/></clipPath><clipPath id="ea4b8eaa16"><path d="M 109 0.117188 L 252.804688 0.117188 L 252.804688 118 L 109 118 Z M 109 0.117188 " clip-rule="nonzero"/></clipPath></defs><g clip-path="url(#63c1bae9e4)"><path fill="#7bc1b7" d="M 178.265625 160.523438 C 175.265625 157.519531 172.5 154.316406 169.96875 150.910156 L 169.96875 170.722656 C 169.984375 171.421875 169.964844 172.117188 169.90625 172.816406 C 169.851562 173.511719 169.761719 174.203125 169.640625 174.886719 C 169.515625 175.574219 169.355469 176.253906 169.164062 176.925781 C 168.972656 177.597656 168.75 178.257812 168.492188 178.90625 C 168.234375 179.554688 167.945312 180.1875 167.625 180.808594 C 167.304688 181.429688 166.953125 182.03125 166.574219 182.617188 C 166.195312 183.203125 165.785156 183.765625 165.347656 184.3125 C 164.914062 184.855469 164.449219 185.378906 163.960938 185.875 C 163.472656 186.375 162.960938 186.847656 162.425781 187.292969 C 161.890625 187.742188 161.332031 188.164062 160.753906 188.554688 C 160.179688 188.945312 159.582031 189.308594 158.96875 189.640625 C 158.355469 189.976562 157.726562 190.277344 157.082031 190.546875 C 156.441406 190.816406 155.785156 191.054688 155.117188 191.261719 C 154.449219 191.464844 153.773438 191.636719 153.089844 191.773438 C 152.40625 191.914062 151.71875 192.015625 151.023438 192.085938 C 150.328125 192.15625 149.632812 192.1875 148.933594 192.1875 C 148.234375 192.1875 147.539062 192.15625 146.84375 192.085938 C 146.152344 192.015625 145.460938 191.914062 144.777344 191.773438 C 144.09375 191.636719 143.417969 191.464844 142.75 191.261719 C 142.082031 191.054688 141.429688 190.816406 140.785156 190.546875 C 140.140625 190.277344 139.511719 189.976562 138.898438 189.640625 C 138.285156 189.308594 137.691406 188.945312 137.113281 188.554688 C 136.535156 188.164062 135.980469 187.742188 135.445312 187.292969 C 134.90625 186.847656 134.394531 186.375 133.90625 185.875 C 133.417969 185.378906 132.957031 184.855469 132.519531 184.3125 C 132.082031 183.765625 131.675781 183.203125 131.292969 182.617188 C 130.914062 182.03125 130.5625 181.429688 130.242188 180.808594 C 129.921875 180.1875 129.632812 179.554688 129.375 178.90625 C 129.121094 178.257812 128.894531 177.597656 128.703125 176.925781 C 128.511719 176.253906 128.355469 175.574219 128.230469 174.886719 C 128.105469 174.203125 128.015625 173.511719 127.960938 172.816406 C 127.90625 172.117188 127.886719 171.421875 127.898438 170.722656 L 127.898438 125.140625 L 82.332031 125.140625 C 81.226562 125.140625 80.125 125.054688 79.035156 124.878906 C 77.941406 124.707031 76.871094 124.449219 75.820312 124.105469 C 74.769531 123.765625 73.75 123.34375 72.765625 122.839844 C 71.78125 122.335938 70.839844 121.761719 69.949219 121.109375 C 69.054688 120.460938 68.214844 119.742188 67.4375 118.960938 C 66.65625 118.175781 65.941406 117.335938 65.292969 116.441406 C 64.644531 115.546875 64.070312 114.605469 63.570312 113.617188 C 63.070312 112.632812 62.652344 111.613281 62.3125 110.558594 C 61.972656 109.507812 61.71875 108.4375 61.550781 107.34375 C 61.378906 106.25 61.296875 105.152344 61.300781 104.046875 C 61.304688 102.941406 61.394531 101.839844 61.574219 100.75 C 61.75 99.660156 62.011719 98.589844 62.355469 97.539062 C 62.703125 96.488281 63.128906 95.472656 63.636719 94.488281 C 64.140625 93.507812 64.722656 92.570312 65.375 91.675781 C 66.03125 90.785156 66.75 89.953125 67.535156 89.175781 C 68.320312 88.394531 69.164062 87.683594 70.0625 87.039062 L 71.65625 85.894531 C 69.601562 84.179688 67.6875 82.320312 65.917969 80.3125 C 64.042969 78.179688 62.289062 75.953125 60.652344 73.632812 L 59.878906 74.210938 C 58.320312 75.382812 56.863281 76.667969 55.503906 78.066406 C 54.148438 79.464844 52.90625 80.960938 51.78125 82.554688 C 50.660156 84.144531 49.664062 85.816406 48.804688 87.566406 C 47.941406 89.3125 47.21875 91.117188 46.640625 92.976562 C 46.058594 94.839844 45.628906 96.734375 45.34375 98.664062 C 45.058594 100.589844 44.925781 102.53125 44.945312 104.480469 C 44.964844 106.425781 45.136719 108.363281 45.457031 110.285156 C 45.78125 112.207031 46.25 114.09375 46.867188 115.941406 C 47.484375 117.792969 48.242188 119.582031 49.136719 121.3125 C 50.035156 123.042969 51.0625 124.695312 52.214844 126.265625 C 53.371094 127.835938 54.640625 129.304688 56.027344 130.675781 C 57.410156 132.046875 58.894531 133.304688 60.476562 134.445312 C 62.058594 135.582031 63.71875 136.59375 65.457031 137.472656 C 67.195312 138.351562 68.992188 139.09375 70.847656 139.691406 C 72.703125 140.289062 74.59375 140.742188 76.519531 141.042969 C 78.445312 141.347656 80.382812 141.5 82.332031 141.5 L 111.539062 141.5 L 111.539062 170.691406 C 111.519531 171.925781 111.5625 173.160156 111.664062 174.394531 C 111.769531 175.625 111.933594 176.851562 112.160156 178.066406 C 112.382812 179.28125 112.667969 180.484375 113.011719 181.671875 C 113.355469 182.859375 113.757812 184.027344 114.21875 185.175781 C 114.679688 186.324219 115.195312 187.445312 115.769531 188.542969 C 116.339844 189.640625 116.964844 190.707031 117.640625 191.742188 C 118.316406 192.773438 119.046875 193.773438 119.820312 194.738281 C 120.597656 195.699219 121.421875 196.621094 122.289062 197.503906 C 123.15625 198.382812 124.066406 199.21875 125.015625 200.011719 C 125.96875 200.800781 126.953125 201.542969 127.980469 202.234375 C 129.003906 202.929688 130.058594 203.570312 131.148438 204.15625 C 132.234375 204.746094 133.351562 205.277344 134.492188 205.757812 C 135.632812 206.234375 136.792969 206.65625 137.976562 207.015625 C 139.15625 207.378906 140.355469 207.683594 141.566406 207.925781 C 142.78125 208.167969 144.003906 208.351562 145.234375 208.476562 C 146.464844 208.597656 147.699219 208.660156 148.933594 208.660156 C 150.171875 208.660156 151.40625 208.597656 152.636719 208.476562 C 153.867188 208.351562 155.085938 208.167969 156.300781 207.925781 C 157.511719 207.683594 158.710938 207.378906 159.894531 207.015625 C 161.074219 206.65625 162.238281 206.234375 163.378906 205.757812 C 164.519531 205.277344 165.632812 204.746094 166.722656 204.15625 C 167.808594 203.570312 168.863281 202.929688 169.890625 202.234375 C 170.914062 201.542969 171.902344 200.800781 172.851562 200.011719 C 173.804688 199.21875 174.710938 198.382812 175.582031 197.503906 C 176.449219 196.621094 177.269531 195.699219 178.046875 194.738281 C 178.824219 193.773438 179.550781 192.773438 180.226562 191.742188 C 180.90625 190.707031 181.527344 189.640625 182.101562 188.542969 C 182.671875 187.445312 183.1875 186.324219 183.648438 185.175781 C 184.109375 184.027344 184.511719 182.859375 184.855469 181.671875 C 185.199219 180.484375 185.484375 179.28125 185.710938 178.066406 C 185.933594 176.851562 186.097656 175.625 186.203125 174.394531 C 186.308594 173.160156 186.347656 171.925781 186.332031 170.691406 L 186.332031 167.328125 C 183.453125 165.285156 180.765625 163.015625 178.265625 160.523438 Z M 178.265625 160.523438 " fill-opacity="1" fill-rule="nonzero"/></g><g clip-path="url(#ea4b8eaa16)"><path fill="#0b8fac" d="M 115.070312 73.917969 C 113.828125 76.824219 112.105469 79.40625 109.902344 81.671875 L 110.445312 82.90625 L 110.445312 83.035156 L 127.898438 83.035156 L 127.898438 37.5 C 127.914062 36.820312 127.960938 36.140625 128.039062 35.46875 C 128.117188 34.792969 128.230469 34.121094 128.375 33.457031 C 128.519531 32.792969 128.695312 32.136719 128.902344 31.488281 C 129.113281 30.839844 129.351562 30.203125 129.621094 29.582031 C 129.890625 28.957031 130.191406 28.347656 130.519531 27.75 C 130.847656 27.15625 131.203125 26.578125 131.589844 26.015625 C 131.976562 25.457031 132.386719 24.914062 132.824219 24.394531 C 133.261719 23.875 133.722656 23.375 134.207031 22.898438 C 134.695312 22.421875 135.203125 21.972656 135.730469 21.542969 C 136.261719 21.117188 136.808594 20.71875 137.378906 20.34375 C 137.945312 19.96875 138.53125 19.625 139.132812 19.308594 C 139.734375 18.992188 140.351562 18.703125 140.980469 18.449219 C 141.609375 18.191406 142.25 17.964844 142.902344 17.769531 C 143.554688 17.574219 144.214844 17.410156 144.882812 17.28125 C 145.550781 17.148438 146.222656 17.050781 146.898438 16.984375 C 147.574219 16.917969 148.253906 16.886719 148.933594 16.886719 C 149.613281 16.886719 150.292969 16.917969 150.96875 16.984375 C 151.648438 17.050781 152.320312 17.148438 152.988281 17.28125 C 153.652344 17.410156 154.3125 17.574219 154.964844 17.769531 C 155.617188 17.964844 156.257812 18.191406 156.886719 18.449219 C 157.515625 18.703125 158.132812 18.992188 158.734375 19.308594 C 159.335938 19.625 159.921875 19.96875 160.488281 20.34375 C 161.058594 20.71875 161.609375 21.117188 162.136719 21.542969 C 162.667969 21.972656 163.175781 22.421875 163.660156 22.898438 C 164.144531 23.375 164.609375 23.875 165.046875 24.394531 C 165.484375 24.914062 165.894531 25.457031 166.277344 26.015625 C 166.664062 26.578125 167.019531 27.15625 167.351562 27.75 C 167.679688 28.347656 167.976562 28.957031 168.246094 29.582031 C 168.519531 30.203125 168.757812 30.839844 168.964844 31.488281 C 169.171875 32.136719 169.347656 32.792969 169.492188 33.457031 C 169.636719 34.121094 169.75 34.792969 169.828125 35.46875 C 169.910156 36.140625 169.957031 36.820312 169.96875 37.5 L 169.96875 83.070312 L 177.792969 83.070312 C 179.078125 82.445312 180.421875 81.972656 181.8125 81.65625 C 183.207031 81.335938 184.621094 81.175781 186.050781 81.175781 C 187.480469 81.175781 188.894531 81.335938 190.285156 81.65625 C 191.679688 81.972656 193.019531 82.445312 194.308594 83.070312 L 215.519531 83.070312 C 216.207031 83.070312 216.894531 83.105469 217.582031 83.171875 C 218.265625 83.242188 218.945312 83.34375 219.621094 83.476562 C 220.296875 83.613281 220.964844 83.78125 221.621094 83.980469 C 222.28125 84.179688 222.929688 84.414062 223.566406 84.675781 C 224.199219 84.941406 224.820312 85.234375 225.429688 85.558594 C 226.035156 85.882812 226.625 86.238281 227.199219 86.621094 C 227.769531 87.003906 228.324219 87.414062 228.855469 87.851562 C 229.386719 88.285156 229.898438 88.75 230.382812 89.234375 C 230.871094 89.722656 231.332031 90.230469 231.769531 90.765625 C 232.207031 91.296875 232.617188 91.847656 233 92.421875 C 233.382812 92.992188 233.734375 93.582031 234.058594 94.191406 C 234.386719 94.796875 234.679688 95.417969 234.945312 96.054688 C 235.207031 96.691406 235.441406 97.339844 235.640625 97.996094 C 235.839844 98.65625 236.007812 99.324219 236.144531 100 C 236.277344 100.671875 236.378906 101.355469 236.449219 102.039062 C 236.515625 102.722656 236.550781 103.410156 236.550781 104.097656 C 236.550781 105.378906 236.433594 106.648438 236.199219 107.90625 C 242.132812 109.085938 247.113281 111.414062 250.050781 116.625 C 250.207031 116.902344 250.335938 117.1875 250.472656 117.488281 L 251.027344 115.832031 C 251.257812 115.132812 251.464844 114.429688 251.65625 113.71875 C 251.84375 113.007812 252.011719 112.289062 252.160156 111.566406 C 252.308594 110.847656 252.433594 110.121094 252.535156 109.390625 C 252.640625 108.664062 252.722656 107.933594 252.785156 107.199219 C 252.84375 106.464844 252.882812 105.730469 252.902344 104.992188 C 252.917969 104.257812 252.914062 103.519531 252.890625 102.785156 C 252.863281 102.050781 252.816406 101.316406 252.746094 100.582031 C 252.675781 99.847656 252.585938 99.117188 252.472656 98.390625 C 252.359375 97.664062 252.226562 96.941406 252.070312 96.21875 C 251.914062 95.5 251.738281 94.785156 251.542969 94.078125 C 251.34375 93.367188 251.125 92.664062 250.886719 91.96875 C 250.648438 91.273438 250.386719 90.582031 250.109375 89.902344 C 249.828125 89.21875 249.527344 88.546875 249.207031 87.886719 C 248.890625 87.222656 248.550781 86.566406 248.191406 85.925781 C 247.835938 85.28125 247.457031 84.648438 247.0625 84.027344 C 246.667969 83.40625 246.253906 82.796875 245.820312 82.203125 C 245.390625 81.605469 244.941406 81.023438 244.476562 80.453125 C 244.007812 79.882812 243.527344 79.324219 243.027344 78.785156 C 242.527344 78.242188 242.015625 77.714844 241.484375 77.203125 C 240.957031 76.691406 240.410156 76.199219 239.851562 75.71875 C 239.292969 75.238281 238.71875 74.777344 238.132812 74.332031 C 237.546875 73.886719 236.949219 73.460938 236.335938 73.050781 C 235.722656 72.640625 235.101562 72.25 234.464844 71.875 C 233.832031 71.503906 233.1875 71.148438 232.53125 70.8125 C 231.875 70.480469 231.210938 70.164062 230.535156 69.867188 C 229.859375 69.574219 229.175781 69.296875 228.488281 69.042969 C 227.796875 68.785156 227.097656 68.550781 226.394531 68.339844 C 225.691406 68.125 224.980469 67.929688 224.261719 67.757812 C 223.546875 67.585938 222.828125 67.4375 222.101562 67.308594 C 221.378906 67.175781 220.648438 67.070312 219.917969 66.984375 C 219.1875 66.898438 218.453125 66.832031 217.71875 66.789062 C 216.984375 66.746094 216.25 66.722656 215.511719 66.722656 L 186.332031 66.722656 L 186.332031 37.5 C 186.3125 36.289062 186.234375 35.078125 186.097656 33.871094 C 185.960938 32.667969 185.769531 31.472656 185.515625 30.285156 C 185.265625 29.097656 184.953125 27.925781 184.585938 26.769531 C 184.222656 25.613281 183.800781 24.476562 183.324219 23.363281 C 182.847656 22.246094 182.316406 21.15625 181.734375 20.09375 C 181.148438 19.03125 180.515625 17.996094 179.832031 16.996094 C 179.148438 15.992188 178.417969 15.027344 177.640625 14.09375 C 176.863281 13.164062 176.042969 12.273438 175.179688 11.421875 C 174.316406 10.570312 173.410156 9.761719 172.46875 9 C 171.527344 8.238281 170.546875 7.519531 169.535156 6.851562 C 168.523438 6.183594 167.480469 5.566406 166.40625 5 C 165.335938 4.433594 164.238281 3.921875 163.117188 3.460938 C 161.992188 3 160.851562 2.597656 159.6875 2.246094 C 158.527344 1.898438 157.351562 1.605469 156.160156 1.371094 C 154.972656 1.136719 153.773438 0.960938 152.566406 0.84375 C 151.359375 0.726562 150.148438 0.667969 148.933594 0.667969 C 147.722656 0.667969 146.511719 0.726562 145.304688 0.84375 C 144.097656 0.960938 142.898438 1.136719 141.707031 1.371094 C 140.515625 1.605469 139.339844 1.898438 138.179688 2.246094 C 137.015625 2.597656 135.875 3 134.753906 3.460938 C 133.628906 3.921875 132.53125 4.433594 131.460938 5 C 130.386719 5.566406 129.34375 6.183594 128.332031 6.851562 C 127.320312 7.519531 126.34375 8.238281 125.398438 9 C 124.457031 9.761719 123.554688 10.570312 122.691406 11.421875 C 121.824219 12.273438 121.003906 13.164062 120.226562 14.09375 C 119.449219 15.027344 118.71875 15.992188 118.035156 16.996094 C 117.351562 17.996094 116.71875 19.03125 116.136719 20.09375 C 115.550781 21.15625 115.023438 22.246094 114.546875 23.363281 C 114.070312 24.476562 113.648438 25.613281 113.28125 26.769531 C 112.914062 27.925781 112.605469 29.097656 112.351562 30.285156 C 112.101562 31.472656 111.90625 32.667969 111.769531 33.871094 C 111.632812 35.078125 111.554688 36.289062 111.539062 37.5 L 111.539062 38.191406 C 115.933594 48.90625 118.449219 65.714844 115.070312 73.917969 Z M 115.070312 73.917969 " fill-opacity="1" fill-rule="nonzero"/></g><path fill="#7bc1b7" d="M 56.777344 54.730469 C 57.492188 60.117188 62.972656 69.738281 69.527344 77.132812 C 72.226562 80.164062 76.230469 84.066406 80.003906 85.453125 C 83.46875 86.644531 87.011719 86.972656 90.636719 86.4375 L 92.523438 90.746094 C 92.804688 91.394531 93.226562 91.933594 93.785156 92.371094 C 94.34375 92.804688 94.96875 93.078125 95.667969 93.191406 L 95.867188 93.820312 L 97.847656 92.960938 C 98.046875 93.519531 98.253906 94.027344 98.46875 94.519531 C 99.785156 97.53125 101.53125 100.269531 103.714844 102.730469 C 105.605469 104.816406 107.726562 106.636719 110.074219 108.1875 C 112.425781 109.738281 114.933594 110.972656 117.59375 111.886719 C 125.296875 114.652344 131.765625 113.730469 137.488281 112.914062 C 147.277344 111.507812 153.746094 110.585938 162.636719 129.351562 C 167.753906 140.171875 174.519531 150.019531 181.652344 157.113281 C 190.140625 165.519531 199.152344 170.035156 207.714844 170.257812 C 220.429688 170.5 231.613281 161.773438 240.917969 144.195312 C 247.25 132.273438 248.828125 124.234375 245.863281 118.996094 C 242.195312 112.480469 233.15625 111.972656 222.679688 111.378906 C 214.703125 110.929688 205.691406 110.421875 198.554688 107.070312 C 198.835938 106.566406 199.082031 106.046875 199.300781 105.511719 C 199.515625 104.976562 199.699219 104.429688 199.847656 103.871094 C 199.996094 103.3125 200.113281 102.75 200.195312 102.175781 C 200.273438 101.605469 200.320312 101.03125 200.332031 100.453125 C 200.34375 99.875 200.320312 99.300781 200.257812 98.726562 C 200.199219 98.152344 200.105469 97.582031 199.976562 97.019531 C 199.851562 96.457031 199.6875 95.902344 199.492188 95.359375 C 199.296875 94.816406 199.070312 94.289062 198.808594 93.773438 C 198.550781 93.257812 198.257812 92.757812 197.9375 92.277344 C 197.617188 91.800781 197.269531 91.339844 196.890625 90.902344 C 196.515625 90.464844 196.113281 90.050781 195.6875 89.664062 C 195.261719 89.273438 194.8125 88.910156 194.339844 88.578125 C 193.871094 88.242188 193.378906 87.9375 192.871094 87.664062 C 192.363281 87.390625 191.84375 87.148438 191.304688 86.933594 C 190.765625 86.722656 190.21875 86.546875 189.660156 86.402344 C 189.101562 86.257812 188.535156 86.148438 187.964844 86.074219 C 187.390625 85.996094 186.816406 85.957031 186.238281 85.949219 C 185.660156 85.945312 185.085938 85.972656 184.511719 86.039062 C 183.9375 86.105469 183.371094 86.203125 182.808594 86.335938 C 182.246094 86.46875 181.695312 86.636719 181.152344 86.835938 C 180.613281 87.039062 180.085938 87.269531 179.570312 87.535156 C 179.058594 87.800781 178.5625 88.097656 178.085938 88.421875 C 177.609375 88.746094 177.152344 89.097656 176.71875 89.480469 C 176.285156 89.859375 175.875 90.265625 175.492188 90.695312 C 175.105469 91.125 174.75 91.578125 174.417969 92.050781 C 174.089844 92.527344 173.789062 93.019531 173.519531 93.527344 C 173.25 94.039062 173.011719 94.5625 172.804688 95.105469 C 172.597656 95.644531 172.425781 96.191406 172.289062 96.753906 C 172.148438 97.3125 172.042969 97.878906 171.972656 98.453125 C 171.902344 99.027344 171.867188 99.601562 171.867188 100.179688 C 171.867188 100.757812 171.902344 101.332031 171.972656 101.90625 C 172.042969 102.476562 172.148438 103.046875 172.285156 103.605469 C 172.425781 104.164062 172.597656 104.714844 172.800781 105.253906 C 173.007812 105.792969 173.246094 106.320312 173.515625 106.832031 C 173.785156 107.339844 174.085938 107.832031 174.414062 108.308594 C 174.746094 108.78125 175.101562 109.234375 175.484375 109.664062 C 175.871094 110.09375 176.28125 110.5 176.714844 110.882812 C 177.148438 111.261719 177.601562 111.617188 178.082031 111.941406 C 178.558594 112.265625 179.050781 112.5625 179.566406 112.828125 C 180.078125 113.09375 180.605469 113.324219 181.144531 113.527344 C 181.6875 113.726562 182.238281 113.894531 182.800781 114.027344 C 183.363281 114.164062 183.929688 114.261719 184.503906 114.328125 C 185.078125 114.390625 185.652344 114.421875 186.230469 114.414062 C 186.808594 114.410156 187.382812 114.371094 187.957031 114.292969 C 188.527344 114.21875 189.09375 114.109375 189.652344 113.964844 C 190.210938 113.820312 190.761719 113.644531 191.296875 113.433594 C 191.835938 113.222656 192.359375 112.980469 192.867188 112.707031 C 193.375 112.429688 193.863281 112.128906 194.335938 111.792969 C 202.949219 116.359375 213.238281 116.960938 222.359375 117.460938 C 230.683594 117.925781 238.542969 118.375 240.566406 121.976562 C 241.796875 124.148438 241.917969 129.265625 235.542969 141.308594 C 227.375 156.699219 218.042969 164.410156 207.851562 164.152344 C 191.484375 163.789062 176.234375 143.78125 168.167969 126.765625 C 157.339844 103.925781 146.808594 105.433594 136.617188 106.890625 C 131.363281 107.640625 125.933594 108.425781 119.664062 106.167969 C 109.730469 102.601562 105.34375 95.871094 103.414062 90.546875 L 103.835938 90.367188 C 104.085938 90.257812 104.324219 90.121094 104.550781 89.964844 C 104.773438 89.808594 104.980469 89.632812 105.171875 89.433594 C 105.359375 89.238281 105.53125 89.023438 105.679688 88.792969 C 105.824219 88.5625 105.949219 88.316406 106.050781 88.0625 C 106.148438 87.808594 106.222656 87.546875 106.273438 87.277344 C 106.320312 87.007812 106.34375 86.734375 106.335938 86.460938 C 106.332031 86.1875 106.300781 85.914062 106.242188 85.648438 C 106.183594 85.378906 106.097656 85.121094 105.988281 84.871094 L 104.09375 80.5625 C 106.949219 78.265625 109.117188 75.441406 110.597656 72.09375 C 114.234375 63.347656 109.539062 41.074219 103.84375 34.183594 C 101.257812 31.109375 97.339844 29.332031 92.375 29.015625 C 92.058594 28.425781 91.667969 27.890625 91.203125 27.40625 C 90.742188 26.925781 90.222656 26.511719 89.648438 26.171875 C 89.070312 25.828125 88.460938 25.570312 87.816406 25.394531 C 87.171875 25.214844 86.515625 25.128906 85.847656 25.128906 C 85.539062 25.128906 85.238281 25.148438 84.933594 25.1875 C 84.632812 25.226562 84.332031 25.28125 84.035156 25.355469 C 83.742188 25.433594 83.453125 25.527344 83.167969 25.636719 C 82.882812 25.75 82.605469 25.875 82.339844 26.023438 C 82.070312 26.167969 81.8125 26.328125 81.5625 26.507812 C 81.316406 26.683594 81.078125 26.875 80.855469 27.082031 C 80.628906 27.289062 80.417969 27.507812 80.222656 27.742188 C 80.023438 27.972656 79.84375 28.21875 79.675781 28.472656 C 79.507812 28.730469 79.359375 28.992188 79.222656 29.265625 C 79.089844 29.542969 78.972656 29.824219 78.875 30.109375 C 78.773438 30.398438 78.691406 30.691406 78.628906 30.992188 C 78.566406 31.289062 78.523438 31.589844 78.496094 31.894531 C 78.472656 32.199219 78.464844 32.503906 78.476562 32.808594 C 78.488281 33.113281 78.519531 33.417969 78.566406 33.71875 C 78.617188 34.019531 78.683594 34.316406 78.769531 34.609375 C 78.855469 34.902344 78.960938 35.1875 79.082031 35.46875 C 79.378906 36.140625 79.761719 36.753906 80.242188 37.3125 C 80.71875 37.871094 81.265625 38.34375 81.882812 38.738281 C 82.503906 39.132812 83.167969 39.429688 83.875 39.628906 C 84.582031 39.824219 85.300781 39.914062 86.035156 39.898438 C 86.769531 39.882812 87.484375 39.757812 88.179688 39.527344 C 88.878906 39.296875 89.527344 38.972656 90.125 38.546875 C 90.726562 38.125 91.25 37.625 91.703125 37.046875 C 92.152344 36.464844 92.511719 35.832031 92.773438 35.148438 C 95.546875 35.433594 97.632812 36.347656 98.992188 37.878906 L 99.132812 38.042969 C 101.148438 40.472656 103.371094 46.710938 104.664062 53.550781 C 105.953125 60.390625 106.085938 66.949219 104.945312 69.679688 C 102.871094 74.683594 97.191406 78.046875 95.425781 79 C 93.503906 79.664062 87.207031 81.535156 82.117188 79.65625 C 79.339844 78.640625 74.664062 74.152344 70.476562 68.457031 C 66.289062 62.761719 63.253906 56.980469 62.84375 53.808594 C 62.558594 51.714844 63.300781 49.5 65.039062 47.175781 C 65.320312 47.289062 65.609375 47.382812 65.902344 47.460938 C 66.195312 47.539062 66.492188 47.597656 66.792969 47.636719 C 67.09375 47.675781 67.398438 47.699219 67.699219 47.703125 C 68.003906 47.707031 68.308594 47.691406 68.609375 47.65625 C 68.910156 47.625 69.210938 47.570312 69.503906 47.5 C 69.800781 47.429688 70.089844 47.34375 70.375 47.234375 C 70.660156 47.128906 70.933594 47.007812 71.203125 46.867188 C 71.472656 46.726562 71.734375 46.570312 71.984375 46.398438 C 72.234375 46.226562 72.472656 46.039062 72.699219 45.835938 C 72.925781 45.636719 73.140625 45.421875 73.339844 45.191406 C 73.539062 44.964844 73.726562 44.726562 73.898438 44.472656 C 74.070312 44.222656 74.222656 43.964844 74.363281 43.691406 C 74.503906 43.421875 74.625 43.144531 74.730469 42.859375 C 74.832031 42.574219 74.921875 42.285156 74.992188 41.992188 C 75.058594 41.695312 75.109375 41.394531 75.144531 41.09375 C 75.175781 40.792969 75.1875 40.488281 75.183594 40.1875 C 75.179688 39.882812 75.15625 39.582031 75.113281 39.28125 C 75.070312 38.980469 75.011719 38.683594 74.933594 38.390625 C 74.855469 38.09375 74.757812 37.808594 74.644531 37.527344 C 74.53125 37.246094 74.398438 36.972656 74.253906 36.707031 C 74.105469 36.441406 73.941406 36.1875 73.761719 35.941406 C 73.585938 35.695312 73.390625 35.460938 73.183594 35.242188 C 72.976562 35.019531 72.753906 34.8125 72.523438 34.617188 C 72.289062 34.421875 72.042969 34.242188 71.789062 34.078125 C 71.535156 33.914062 71.269531 33.765625 70.996094 33.636719 C 70.722656 33.503906 70.441406 33.390625 70.152344 33.292969 C 69.867188 33.195312 69.574219 33.113281 69.277344 33.054688 C 68.980469 32.992188 68.679688 32.949219 68.375 32.925781 C 68.074219 32.902344 67.769531 32.894531 67.46875 32.910156 C 67.164062 32.921875 66.863281 32.953125 66.5625 33.003906 C 66.265625 33.054688 65.96875 33.121094 65.679688 33.207031 C 65.386719 33.292969 65.101562 33.398438 64.824219 33.519531 C 64.394531 33.707031 63.988281 33.929688 63.605469 34.191406 C 63.21875 34.453125 62.863281 34.75 62.53125 35.078125 C 62.203125 35.410156 61.90625 35.765625 61.644531 36.152344 C 61.382812 36.539062 61.160156 36.945312 60.972656 37.371094 C 60.789062 37.800781 60.644531 38.242188 60.542969 38.695312 C 60.4375 39.152344 60.378906 39.609375 60.363281 40.078125 C 60.347656 40.542969 60.378906 41.007812 60.449219 41.464844 C 60.519531 41.925781 60.636719 42.378906 60.792969 42.816406 C 57.636719 46.667969 56.25 50.777344 56.777344 54.730469 Z M 56.777344 54.730469 " fill-opacity="1" fill-rule="nonzero"/><path stroke-linecap="butt" transform="matrix(0.478615, -0.57497, 0.57497, 0.478615, 116.694527, 34.132271)" fill="none" stroke-linejoin="miter" d="M -0.000966136 1.999556 L 16.950045 2.000045 " stroke="#0b8fac" stroke-width="4" stroke-opacity="1" stroke-miterlimit="4"/><g fill="#0097b2" fill-opacity="1"><g transform="translate(17.392407, 276.581126)"><g><path d="M 9.734375 -30.0625 L 9.734375 -0.53125 C 9.734375 -0.296875 9.96875 0 10.375 0 L 17.984375 0 C 18.390625 0 18.6875 -0.296875 18.6875 -0.53125 L 18.6875 -30.0625 Z M 0.65625 -39.078125 L 27.703125 -39.078125 C 28.125 -39.078125 28.359375 -39.328125 28.359375 -39.609375 L 28.359375 -46.625 C 28.359375 -46.875 28.125 -47.15625 27.703125 -47.15625 L 0.65625 -47.15625 C 0.296875 -47.15625 0 -46.875 0 -46.625 L 0 -39.609375 C 0 -39.328125 0.296875 -39.078125 0.65625 -39.078125 Z M 0.65625 -39.078125 "/></g></g></g><g fill="#0097b2" fill-opacity="1"><g transform="translate(50.460127, 276.581126)"><g><path d="M 32.1875 -0.765625 C 29.234375 -7.3125 26.0625 -13.796875 23.109375 -20.453125 C 27.828125 -22.171875 31.78125 -25.9375 31.78125 -33.125 C 31.78125 -47.046875 18.515625 -47.15625 15.859375 -47.15625 L 0.59375 -47.15625 C 0.296875 -47.15625 0 -46.875 0 -46.625 L 0 -38.609375 L 15.859375 -38.609375 C 17.265625 -38.609375 22.8125 -38.3125 22.8125 -33.125 C 22.8125 -27.9375 17.796875 -27.703125 15.859375 -27.703125 L 0 -27.703125 L 0 -0.53125 C 0 -0.296875 0.296875 0 0.59375 0 L 8.3125 0 C 8.671875 0 8.953125 -0.296875 8.953125 -0.53125 L 8.953125 -19.046875 L 14.03125 -19.046875 L 22.640625 -0.359375 C 22.703125 -0.171875 23.046875 0 23.234375 0 L 31.65625 0 C 32.125 0 32.359375 -0.359375 32.1875 -0.765625 Z M 32.1875 -0.765625 "/></g></g></g><g fill="#0097b2" fill-opacity="1"><g transform="translate(87.653885, 276.581126)"><g><path d="M 22.40625 -8.78125 L 9.015625 -8.78125 L 9.015625 -19.390625 L 27.53125 -19.390625 C 27.890625 -19.390625 28.171875 -19.6875 28.171875 -19.921875 L 28.171875 -27.40625 C 28.171875 -27.703125 27.890625 -27.9375 27.53125 -27.9375 L 9.015625 -27.9375 L 9.015625 -38.609375 L 22.40625 -38.609375 L 22.40625 -47.15625 L 0.65625 -47.15625 C 0.296875 -47.15625 0 -46.875 0 -46.625 L 0 -0.53125 C 0 -0.296875 0.296875 0 0.65625 0 L 22.40625 0 Z M 22.40625 -8.78125 "/></g></g></g><g fill="#0097b2" fill-opacity="1"><g transform="translate(120.544767, 276.581126)"><g><path d="M 37.015625 -0.703125 L 19.09375 -46.8125 C 18.921875 -47.28125 18.09375 -47.28125 17.921875 -46.8125 L 0.0625 -0.703125 C -0.125 -0.359375 0.125 0 0.65625 0 L 8.71875 0 C 8.953125 0 9.25 -0.125 9.3125 -0.359375 L 18.515625 -26.640625 L 27.828125 -0.359375 C 27.890625 -0.125 28.171875 0 28.359375 0 L 36.484375 0 C 36.90625 0 37.203125 -0.359375 37.015625 -0.703125 Z M 37.015625 -0.703125 "/></g></g></g><g fill="#0097b2" fill-opacity="1"><g transform="translate(162.748711, 276.581126)"><g><path d="M 9.734375 -30.0625 L 9.734375 -0.53125 C 9.734375 -0.296875 9.96875 0 10.375 0 L 17.984375 0 C 18.390625 0 18.6875 -0.296875 18.6875 -0.53125 L 18.6875 -30.0625 Z M 0.65625 -39.078125 L 27.703125 -39.078125 C 28.125 -39.078125 28.359375 -39.328125 28.359375 -39.609375 L 28.359375 -46.625 C 28.359375 -46.875 28.125 -47.15625 27.703125 -47.15625 L 0.65625 -47.15625 C 0.296875 -47.15625 0 -46.875 0 -46.625 L 0 -39.609375 C 0 -39.328125 0.296875 -39.078125 0.65625 -39.078125 Z M 0.65625 -39.078125 "/></g></g></g><g fill="#7bc1b7" fill-opacity="1"><g transform="translate(195.826447, 276.581126)"><g><path d="M 25.46875 -8.78125 L 0 -8.78125 L 0 -0.53125 C 0 -0.296875 0.296875 0 0.65625 0 L 25.46875 0 C 25.875 0 26.109375 -0.296875 26.109375 -0.53125 L 26.109375 -8.1875 C 26.109375 -8.484375 25.875 -8.78125 25.46875 -8.78125 Z M 9.015625 -17.796875 L 9.015625 -46.625 C 9.015625 -46.875 8.78125 -47.15625 8.4375 -47.15625 L 0.65625 -47.15625 C 0.296875 -47.15625 0 -46.875 0 -46.625 L 0 -17.796875 Z M 9.015625 -17.796875 "/></g></g></g><g fill="#7bc1b7" fill-opacity="1"><g transform="translate(226.595375, 276.581126)"><g><path d="M 19.21875 -8.078125 L 14.5 -8.078125 L 14.5 -47.15625 L 5.484375 -47.15625 L 5.484375 -8.078125 L 0.65625 -8.078125 C 0.296875 -8.078125 0 -7.84375 0 -7.546875 L 0 -0.53125 C 0 -0.296875 0.296875 0 0.65625 0 L 19.21875 0 C 19.625 0 19.859375 -0.296875 19.859375 -0.53125 L 19.859375 -7.546875 C 19.859375 -7.84375 19.625 -8.078125 19.21875 -8.078125 Z M 19.21875 -8.078125 "/></g></g></g><g fill="#7bc1b7" fill-opacity="1"><g transform="translate(250.762641, 276.581126)"><g><path d="M 22.40625 -8.78125 L 9.015625 -8.78125 L 9.015625 -19.390625 L 27.53125 -19.390625 C 27.890625 -19.390625 28.171875 -19.6875 28.171875 -19.921875 L 28.171875 -27.40625 C 28.171875 -27.703125 27.890625 -27.9375 27.53125 -27.9375 L 9.015625 -27.9375 L 9.015625 -38.609375 L 22.40625 -38.609375 L 22.40625 -47.15625 L 0.65625 -47.15625 C 0.296875 -47.15625 0 -46.875 0 -46.625 L 0 -0.53125 C 0 -0.296875 0.296875 0 0.65625 0 L 22.40625 0 Z M 22.40625 -8.78125 "/></g></g></g></svg>