<svg xmlns="http://www.w3.org/2000/svg" xmlns:xlink="http://www.w3.org/1999/xlink" width="279" zoomAndPan="magnify" viewBox="0 0 209.25 209.249995" height="279" preserveAspectRatio="xMidYMid meet" version="1.0"><defs><clipPath id="5d33416ad6"><path d="M 0.117188 73 L 142 73 L 142 207.753906 L 0.117188 207.753906 Z M 0.117188 73 " clip-rule="nonzero"/></clipPath><clipPath id="31ca166324"><path d="M 65 0.117188 L 207.753906 0.117188 L 207.753906 118 L 65 118 Z M 65 0.117188 " clip-rule="nonzero"/></clipPath></defs><g clip-path="url(#5d33416ad6)"><path fill="#7bc1b7" d="M 133.296875 160.355469 C 130.300781 157.355469 127.535156 154.152344 125.007812 150.75 L 125.007812 170.546875 C 125.023438 171.242188 125 171.9375 124.945312 172.632812 C 124.890625 173.328125 124.800781 174.019531 124.675781 174.707031 C 124.554688 175.390625 124.394531 176.070312 124.203125 176.738281 C 124.011719 177.410156 123.789062 178.070312 123.53125 178.71875 C 123.273438 179.367188 122.984375 180 122.667969 180.617188 C 122.347656 181.238281 121.996094 181.839844 121.617188 182.425781 C 121.234375 183.007812 120.828125 183.574219 120.390625 184.117188 C 119.957031 184.660156 119.492188 185.183594 119.003906 185.679688 C 118.515625 186.179688 118.007812 186.652344 117.472656 187.097656 C 116.9375 187.546875 116.378906 187.964844 115.804688 188.355469 C 115.226562 188.75 114.632812 189.109375 114.019531 189.441406 C 113.40625 189.777344 112.777344 190.078125 112.136719 190.347656 C 111.492188 190.617188 110.839844 190.855469 110.171875 191.058594 C 109.503906 191.265625 108.832031 191.4375 108.148438 191.574219 C 107.464844 191.710938 106.773438 191.816406 106.082031 191.882812 C 105.386719 191.953125 104.691406 191.988281 103.996094 191.988281 C 103.296875 191.988281 102.601562 191.953125 101.90625 191.882812 C 101.214844 191.816406 100.527344 191.710938 99.84375 191.574219 C 99.160156 191.4375 98.484375 191.265625 97.816406 191.058594 C 97.152344 190.855469 96.496094 190.617188 95.851562 190.347656 C 95.210938 190.078125 94.582031 189.777344 93.96875 189.441406 C 93.355469 189.109375 92.761719 188.75 92.1875 188.355469 C 91.609375 187.964844 91.054688 187.546875 90.519531 187.097656 C 89.984375 186.652344 89.472656 186.179688 88.984375 185.679688 C 88.496094 185.183594 88.035156 184.660156 87.597656 184.117188 C 87.160156 183.574219 86.753906 183.007812 86.371094 182.425781 C 85.992188 181.839844 85.644531 181.238281 85.324219 180.617188 C 85.003906 180 84.714844 179.367188 84.457031 178.71875 C 84.199219 178.070312 83.976562 177.410156 83.785156 176.738281 C 83.59375 176.070312 83.433594 175.390625 83.3125 174.707031 C 83.1875 174.019531 83.097656 173.328125 83.042969 172.632812 C 82.988281 171.9375 82.96875 171.242188 82.980469 170.546875 L 82.980469 125.007812 L 37.460938 125.007812 C 36.355469 125.007812 35.257812 124.921875 34.167969 124.75 C 33.078125 124.574219 32.007812 124.320312 30.957031 123.976562 C 29.90625 123.636719 28.890625 123.214844 27.90625 122.710938 C 26.921875 122.210938 25.984375 121.632812 25.089844 120.984375 C 24.199219 120.332031 23.363281 119.617188 22.582031 118.835938 C 21.800781 118.050781 21.089844 117.214844 20.441406 116.320312 C 19.792969 115.425781 19.21875 114.484375 18.71875 113.5 C 18.222656 112.515625 17.800781 111.496094 17.464844 110.445312 C 17.125 109.394531 16.871094 108.320312 16.703125 107.230469 C 16.53125 106.140625 16.449219 105.042969 16.453125 103.9375 C 16.457031 102.832031 16.546875 101.734375 16.722656 100.644531 C 16.902344 99.554688 17.164062 98.484375 17.507812 97.4375 C 17.851562 96.386719 18.277344 95.371094 18.785156 94.390625 C 19.289062 93.40625 19.871094 92.472656 20.523438 91.582031 C 21.175781 90.691406 21.898438 89.859375 22.683594 89.082031 C 23.46875 88.304688 24.308594 87.59375 25.203125 86.949219 L 26.796875 85.804688 C 24.742188 84.09375 22.832031 82.234375 21.066406 80.226562 C 19.191406 78.097656 17.441406 75.875 15.808594 73.558594 L 15.03125 74.132812 C 13.476562 75.304688 12.019531 76.585938 10.664062 77.984375 C 9.304688 79.382812 8.066406 80.875 6.945312 82.464844 C 5.820312 84.058594 4.832031 85.726562 3.96875 87.472656 C 3.105469 89.21875 2.386719 91.023438 1.808594 92.878906 C 1.226562 94.738281 0.796875 96.632812 0.511719 98.558594 C 0.230469 100.484375 0.0976562 102.421875 0.117188 104.367188 C 0.136719 106.316406 0.304688 108.25 0.628906 110.171875 C 0.949219 112.089844 1.417969 113.972656 2.035156 115.820312 C 2.652344 117.667969 3.40625 119.457031 4.304688 121.183594 C 5.199219 122.914062 6.222656 124.5625 7.378906 126.132812 C 8.53125 127.699219 9.800781 129.167969 11.183594 130.539062 C 12.566406 131.910156 14.046875 133.164062 15.628906 134.300781 C 17.207031 135.441406 18.867188 136.449219 20.605469 137.328125 C 22.34375 138.207031 24.136719 138.945312 25.988281 139.542969 C 27.84375 140.144531 29.730469 140.59375 31.65625 140.898438 C 33.578125 141.199219 35.515625 141.351562 37.460938 141.351562 L 66.636719 141.351562 L 66.636719 170.511719 C 66.617188 171.746094 66.660156 172.980469 66.765625 174.210938 C 66.867188 175.441406 67.03125 176.664062 67.257812 177.878906 C 67.480469 179.09375 67.765625 180.296875 68.109375 181.480469 C 68.453125 182.667969 68.855469 183.835938 69.316406 184.980469 C 69.777344 186.128906 70.292969 187.25 70.863281 188.34375 C 71.433594 189.441406 72.058594 190.503906 72.734375 191.539062 C 73.410156 192.574219 74.136719 193.570312 74.914062 194.53125 C 75.6875 195.492188 76.507812 196.414062 77.375 197.296875 C 78.242188 198.175781 79.152344 199.011719 80.101562 199.800781 C 81.050781 200.589844 82.039062 201.332031 83.0625 202.023438 C 84.085938 202.714844 85.140625 203.355469 86.226562 203.945312 C 87.3125 204.53125 88.425781 205.0625 89.566406 205.539062 C 90.707031 206.019531 91.867188 206.4375 93.046875 206.800781 C 94.226562 207.160156 95.425781 207.464844 96.636719 207.707031 C 97.847656 207.949219 99.066406 208.132812 100.296875 208.257812 C 101.527344 208.378906 102.757812 208.4375 103.996094 208.4375 C 105.230469 208.4375 106.460938 208.378906 107.691406 208.257812 C 108.921875 208.132812 110.140625 207.949219 111.351562 207.707031 C 112.5625 207.464844 113.761719 207.160156 114.941406 206.800781 C 116.121094 206.4375 117.285156 206.019531 118.421875 205.539062 C 119.5625 205.0625 120.675781 204.53125 121.761719 203.945312 C 122.847656 203.355469 123.90625 202.714844 124.929688 202.023438 C 125.949219 201.332031 126.9375 200.589844 127.886719 199.800781 C 128.835938 199.011719 129.746094 198.175781 130.613281 197.296875 C 131.480469 196.414062 132.300781 195.492188 133.078125 194.53125 C 133.851562 193.570312 134.578125 192.574219 135.253906 191.539062 C 135.929688 190.503906 136.554688 189.441406 137.125 188.34375 C 137.695312 187.25 138.210938 186.128906 138.671875 184.980469 C 139.132812 183.835938 139.535156 182.667969 139.878906 181.480469 C 140.222656 180.296875 140.507812 179.09375 140.730469 177.878906 C 140.957031 176.664062 141.121094 175.441406 141.222656 174.210938 C 141.328125 172.980469 141.371094 171.746094 141.351562 170.511719 L 141.351562 167.152344 C 138.480469 165.109375 135.792969 162.84375 133.296875 160.355469 Z M 133.296875 160.355469 " fill-opacity="1" fill-rule="nonzero"/></g><g clip-path="url(#31ca166324)"><path fill="#0b8fac" d="M 70.167969 73.839844 C 68.925781 76.742188 67.203125 79.324219 65.003906 81.585938 L 65.542969 82.816406 L 65.542969 82.945312 L 82.980469 82.945312 L 82.980469 37.460938 C 82.996094 36.78125 83.042969 36.105469 83.121094 35.429688 C 83.199219 34.753906 83.3125 34.085938 83.457031 33.421875 C 83.601562 32.757812 83.777344 32.101562 83.984375 31.457031 C 84.191406 30.808594 84.429688 30.171875 84.699219 29.550781 C 84.96875 28.925781 85.269531 28.316406 85.597656 27.722656 C 85.925781 27.125 86.285156 26.550781 86.667969 25.988281 C 87.050781 25.429688 87.464844 24.890625 87.902344 24.367188 C 88.335938 23.847656 88.796875 23.351562 89.285156 22.875 C 89.769531 22.398438 90.277344 21.949219 90.804688 21.523438 C 91.335938 21.09375 91.882812 20.695312 92.449219 20.324219 C 93.019531 19.949219 93.601562 19.605469 94.203125 19.289062 C 94.804688 18.972656 95.421875 18.683594 96.050781 18.429688 C 96.679688 18.171875 97.320312 17.945312 97.96875 17.75 C 98.621094 17.554688 99.28125 17.394531 99.945312 17.261719 C 100.613281 17.132812 101.285156 17.03125 101.960938 16.96875 C 102.636719 16.902344 103.316406 16.867188 103.996094 16.867188 C 104.675781 16.867188 105.351562 16.902344 106.027344 16.96875 C 106.703125 17.03125 107.375 17.132812 108.042969 17.261719 C 108.710938 17.394531 109.367188 17.554688 110.019531 17.75 C 110.671875 17.945312 111.308594 18.171875 111.9375 18.429688 C 112.566406 18.683594 113.183594 18.972656 113.785156 19.289062 C 114.386719 19.605469 114.96875 19.949219 115.539062 20.324219 C 116.105469 20.695312 116.65625 21.09375 117.183594 21.523438 C 117.710938 21.949219 118.21875 22.398438 118.703125 22.875 C 119.191406 23.351562 119.652344 23.847656 120.089844 24.367188 C 120.523438 24.890625 120.9375 25.429688 121.320312 25.988281 C 121.707031 26.550781 122.0625 27.125 122.390625 27.722656 C 122.71875 28.316406 123.019531 28.925781 123.289062 29.550781 C 123.558594 30.171875 123.796875 30.808594 124.003906 31.457031 C 124.210938 32.101562 124.386719 32.757812 124.53125 33.421875 C 124.675781 34.085938 124.789062 34.753906 124.867188 35.429688 C 124.945312 36.105469 124.992188 36.78125 125.007812 37.460938 L 125.007812 82.980469 L 132.824219 82.980469 C 134.109375 82.359375 135.449219 81.886719 136.839844 81.570312 C 138.234375 81.25 139.644531 81.089844 141.070312 81.089844 C 142.5 81.089844 143.910156 81.25 145.304688 81.570312 C 146.695312 81.886719 148.035156 82.359375 149.320312 82.980469 L 170.511719 82.980469 C 171.199219 82.980469 171.882812 83.015625 172.570312 83.085938 C 173.253906 83.152344 173.933594 83.253906 174.609375 83.390625 C 175.28125 83.523438 175.949219 83.691406 176.605469 83.890625 C 177.265625 84.09375 177.910156 84.324219 178.546875 84.585938 C 179.183594 84.851562 179.800781 85.144531 180.410156 85.46875 C 181.015625 85.792969 181.605469 86.148438 182.175781 86.53125 C 182.75 86.914062 183.300781 87.320312 183.832031 87.757812 C 184.363281 88.195312 184.871094 88.65625 185.359375 89.140625 C 185.84375 89.628906 186.304688 90.136719 186.742188 90.667969 C 187.179688 91.199219 187.589844 91.753906 187.972656 92.324219 C 188.351562 92.894531 188.707031 93.484375 189.03125 94.089844 C 189.355469 94.699219 189.648438 95.320312 189.914062 95.953125 C 190.175781 96.589844 190.410156 97.238281 190.609375 97.894531 C 190.808594 98.550781 190.976562 99.21875 191.113281 99.894531 C 191.246094 100.566406 191.347656 101.246094 191.417969 101.933594 C 191.484375 102.617188 191.519531 103.300781 191.519531 103.988281 C 191.519531 105.269531 191.402344 106.535156 191.167969 107.792969 C 197.097656 108.972656 202.070312 111.296875 205.007812 116.503906 C 205.160156 116.78125 205.289062 117.0625 205.429688 117.363281 L 205.980469 115.710938 C 206.210938 115.015625 206.417969 114.308594 206.609375 113.597656 C 206.796875 112.886719 206.964844 112.171875 207.113281 111.449219 C 207.257812 110.730469 207.382812 110.007812 207.488281 109.277344 C 207.59375 108.550781 207.675781 107.820312 207.734375 107.085938 C 207.796875 106.351562 207.835938 105.617188 207.851562 104.882812 C 207.871094 104.148438 207.867188 103.414062 207.839844 102.679688 C 207.8125 101.941406 207.765625 101.210938 207.695312 100.476562 C 207.628906 99.746094 207.535156 99.015625 207.425781 98.289062 C 207.3125 97.5625 207.179688 96.839844 207.023438 96.121094 C 206.867188 95.398438 206.691406 94.6875 206.492188 93.976562 C 206.296875 93.269531 206.078125 92.566406 205.839844 91.871094 C 205.601562 91.175781 205.339844 90.488281 205.0625 89.808594 C 204.78125 89.128906 204.484375 88.457031 204.164062 87.792969 C 203.84375 87.128906 203.507812 86.476562 203.148438 85.835938 C 202.789062 85.191406 202.414062 84.5625 202.019531 83.941406 C 201.625 83.320312 201.210938 82.710938 200.78125 82.117188 C 200.347656 81.519531 199.902344 80.9375 199.433594 80.367188 C 198.96875 79.796875 198.488281 79.242188 197.988281 78.703125 C 197.492188 78.160156 196.976562 77.632812 196.449219 77.125 C 195.917969 76.613281 195.375 76.117188 194.816406 75.640625 C 194.257812 75.160156 193.683594 74.699219 193.097656 74.253906 C 192.515625 73.808594 191.914062 73.382812 191.304688 72.972656 C 190.691406 72.5625 190.070312 72.171875 189.4375 71.800781 C 188.800781 71.429688 188.15625 71.074219 187.503906 70.738281 C 186.847656 70.40625 186.183594 70.089844 185.507812 69.796875 C 184.835938 69.5 184.152344 69.226562 183.464844 68.96875 C 182.773438 68.714844 182.078125 68.480469 181.375 68.265625 C 180.667969 68.054688 179.960938 67.859375 179.246094 67.6875 C 178.53125 67.515625 177.808594 67.367188 177.085938 67.238281 C 176.363281 67.105469 175.632812 67 174.902344 66.914062 C 174.171875 66.828125 173.441406 66.761719 172.707031 66.71875 C 171.972656 66.675781 171.238281 66.652344 170.503906 66.65625 L 141.351562 66.65625 L 141.351562 37.460938 C 141.332031 36.25 141.257812 35.042969 141.121094 33.835938 C 140.984375 32.632812 140.789062 31.4375 140.539062 30.253906 C 140.285156 29.066406 139.976562 27.898438 139.609375 26.742188 C 139.246094 25.585938 138.824219 24.453125 138.347656 23.339844 C 137.871094 22.222656 137.339844 21.136719 136.757812 20.074219 C 136.175781 19.011719 135.542969 17.976562 134.859375 16.976562 C 134.179688 15.976562 133.449219 15.011719 132.671875 14.082031 C 131.894531 13.148438 131.074219 12.261719 130.210938 11.410156 C 129.347656 10.558594 128.445312 9.753906 127.503906 8.992188 C 126.5625 8.226562 125.585938 7.511719 124.574219 6.84375 C 123.5625 6.179688 122.519531 5.5625 121.449219 4.996094 C 120.378906 4.429688 119.28125 3.914062 118.160156 3.457031 C 117.039062 2.996094 115.898438 2.59375 114.738281 2.246094 C 113.578125 1.894531 112.402344 1.605469 111.214844 1.371094 C 110.023438 1.136719 108.828125 0.960938 107.621094 0.84375 C 106.414062 0.726562 105.207031 0.667969 103.996094 0.667969 C 102.78125 0.667969 101.574219 0.726562 100.367188 0.84375 C 99.160156 0.960938 97.964844 1.136719 96.773438 1.371094 C 95.585938 1.605469 94.410156 1.894531 93.25 2.246094 C 92.089844 2.59375 90.949219 2.996094 89.828125 3.457031 C 88.707031 3.914062 87.609375 4.429688 86.539062 4.996094 C 85.46875 5.5625 84.425781 6.179688 83.414062 6.84375 C 82.402344 7.511719 81.425781 8.226562 80.484375 8.992188 C 79.542969 9.753906 78.640625 10.558594 77.777344 11.410156 C 76.914062 12.261719 76.09375 13.148438 75.316406 14.082031 C 74.539062 15.011719 73.8125 15.976562 73.128906 16.976562 C 72.445312 17.976562 71.8125 19.011719 71.230469 20.074219 C 70.648438 21.136719 70.117188 22.222656 69.640625 23.339844 C 69.164062 24.453125 68.746094 25.585938 68.378906 26.742188 C 68.011719 27.898438 67.703125 29.066406 67.449219 30.253906 C 67.199219 31.4375 67.003906 32.632812 66.867188 33.835938 C 66.734375 35.042969 66.65625 36.25 66.636719 37.460938 L 66.636719 38.148438 C 71.027344 48.855469 73.539062 65.648438 70.167969 73.839844 Z M 70.167969 73.839844 " fill-opacity="1" fill-rule="nonzero"/></g><path fill="#7bc1b7" d="M 11.933594 54.675781 C 12.648438 60.054688 18.121094 69.667969 24.671875 77.050781 C 27.367188 80.082031 31.367188 83.980469 35.136719 85.367188 C 38.597656 86.554688 42.136719 86.878906 45.757812 86.347656 L 47.640625 90.648438 C 47.925781 91.296875 48.34375 91.839844 48.902344 92.273438 C 49.460938 92.707031 50.085938 92.980469 50.785156 93.09375 L 50.980469 93.722656 L 52.960938 92.863281 C 53.160156 93.421875 53.367188 93.929688 53.582031 94.417969 C 54.894531 97.429688 56.640625 100.164062 58.824219 102.621094 C 60.710938 104.707031 62.828125 106.523438 65.175781 108.074219 C 67.523438 109.621094 70.027344 110.855469 72.6875 111.769531 C 80.382812 114.535156 86.847656 113.613281 92.558594 112.792969 C 102.335938 111.390625 108.800781 110.472656 117.683594 129.214844 C 122.796875 140.027344 129.550781 149.863281 136.679688 156.945312 C 145.15625 165.347656 154.15625 169.855469 162.714844 170.082031 C 175.417969 170.320312 186.589844 161.601562 195.882812 144.046875 C 202.207031 132.132812 203.785156 124.105469 200.824219 118.871094 C 197.15625 112.363281 188.128906 111.855469 177.664062 111.261719 C 169.691406 110.816406 160.691406 110.308594 153.5625 106.960938 C 153.84375 106.453125 154.089844 105.933594 154.308594 105.398438 C 154.523438 104.863281 154.707031 104.320312 154.855469 103.761719 C 155.003906 103.203125 155.121094 102.640625 155.199219 102.070312 C 155.28125 101.5 155.328125 100.925781 155.339844 100.347656 C 155.347656 99.773438 155.324219 99.195312 155.265625 98.621094 C 155.207031 98.046875 155.113281 97.480469 154.984375 96.917969 C 154.855469 96.355469 154.695312 95.804688 154.5 95.261719 C 154.304688 94.71875 154.078125 94.1875 153.816406 93.675781 C 153.558594 93.160156 153.265625 92.660156 152.945312 92.183594 C 152.625 91.703125 152.277344 91.246094 151.902344 90.808594 C 151.527344 90.371094 151.125 89.957031 150.699219 89.566406 C 150.273438 89.179688 149.824219 88.820312 149.351562 88.484375 C 148.882812 88.152344 148.394531 87.847656 147.886719 87.570312 C 147.378906 87.296875 146.859375 87.054688 146.320312 86.84375 C 145.785156 86.632812 145.234375 86.457031 144.675781 86.3125 C 144.121094 86.167969 143.554688 86.058594 142.980469 85.980469 C 142.410156 85.90625 141.835938 85.867188 141.257812 85.859375 C 140.683594 85.855469 140.109375 85.882812 139.535156 85.949219 C 138.960938 86.011719 138.394531 86.113281 137.832031 86.246094 C 137.273438 86.378906 136.722656 86.546875 136.179688 86.746094 C 135.640625 86.945312 135.113281 87.179688 134.601562 87.445312 C 134.085938 87.707031 133.59375 88.003906 133.117188 88.328125 C 132.640625 88.652344 132.183594 89.003906 131.75 89.386719 C 131.316406 89.765625 130.90625 90.171875 130.523438 90.601562 C 130.140625 91.03125 129.78125 91.484375 129.453125 91.957031 C 129.121094 92.429688 128.824219 92.921875 128.554688 93.429688 C 128.285156 93.941406 128.046875 94.464844 127.839844 95.003906 C 127.632812 95.542969 127.460938 96.09375 127.324219 96.652344 C 127.183594 97.210938 127.078125 97.777344 127.007812 98.351562 C 126.941406 98.921875 126.90625 99.496094 126.902344 100.074219 C 126.902344 100.652344 126.9375 101.226562 127.007812 101.796875 C 127.078125 102.371094 127.183594 102.9375 127.320312 103.496094 C 127.460938 104.054688 127.632812 104.605469 127.835938 105.144531 C 128.042969 105.683594 128.28125 106.207031 128.550781 106.71875 C 128.820312 107.226562 129.117188 107.71875 129.449219 108.195312 C 129.777344 108.667969 130.132812 109.121094 130.519531 109.550781 C 130.902344 109.980469 131.3125 110.386719 131.746094 110.765625 C 132.179688 111.144531 132.632812 111.5 133.109375 111.824219 C 133.585938 112.148438 134.082031 112.445312 134.59375 112.707031 C 135.105469 112.972656 135.632812 113.207031 136.171875 113.40625 C 136.714844 113.609375 137.265625 113.773438 137.824219 113.910156 C 138.386719 114.042969 138.953125 114.140625 139.527344 114.207031 C 140.101562 114.269531 140.675781 114.300781 141.25 114.296875 C 141.828125 114.289062 142.402344 114.25 142.972656 114.175781 C 143.546875 114.101562 144.113281 113.992188 144.671875 113.847656 C 145.230469 113.703125 145.777344 113.523438 146.3125 113.316406 C 146.851562 113.105469 147.371094 112.863281 147.878906 112.585938 C 148.386719 112.3125 148.875 112.007812 149.347656 111.675781 C 157.953125 116.238281 168.230469 116.839844 177.34375 117.339844 C 185.660156 117.804688 193.507812 118.25 195.53125 121.847656 C 196.761719 124.019531 196.882812 129.128906 190.511719 141.164062 C 182.351562 156.535156 173.03125 164.238281 162.851562 163.976562 C 146.5 163.617188 131.265625 143.632812 123.207031 126.632812 C 112.390625 103.816406 101.871094 105.324219 91.691406 106.777344 C 86.441406 107.527344 81.019531 108.3125 74.753906 106.054688 C 64.828125 102.492188 60.449219 95.769531 58.519531 90.453125 L 58.941406 90.269531 C 59.195312 90.160156 59.429688 90.027344 59.65625 89.871094 C 59.878906 89.714844 60.085938 89.539062 60.277344 89.339844 C 60.46875 89.144531 60.636719 88.929688 60.785156 88.699219 C 60.929688 88.46875 61.054688 88.226562 61.15625 87.96875 C 61.253906 87.714844 61.328125 87.453125 61.375 87.183594 C 61.425781 86.914062 61.445312 86.644531 61.441406 86.371094 C 61.4375 86.097656 61.40625 85.824219 61.347656 85.558594 C 61.289062 85.289062 61.203125 85.03125 61.09375 84.78125 L 59.203125 80.476562 C 62.054688 78.183594 64.21875 75.363281 65.699219 72.015625 C 69.332031 63.28125 64.640625 41.03125 58.953125 34.148438 C 56.371094 31.074219 52.453125 29.300781 47.496094 28.984375 C 47.179688 28.394531 46.789062 27.859375 46.324219 27.378906 C 45.863281 26.898438 45.34375 26.484375 44.769531 26.144531 C 44.195312 25.800781 43.585938 25.542969 42.941406 25.367188 C 42.296875 25.1875 41.640625 25.101562 40.972656 25.101562 C 40.667969 25.101562 40.363281 25.121094 40.0625 25.160156 C 39.757812 25.199219 39.460938 25.253906 39.164062 25.332031 C 38.871094 25.40625 38.582031 25.5 38.296875 25.609375 C 38.011719 25.722656 37.738281 25.847656 37.46875 25.996094 C 37.199219 26.140625 36.941406 26.300781 36.695312 26.476562 C 36.445312 26.65625 36.210938 26.847656 35.988281 27.054688 C 35.761719 27.261719 35.550781 27.480469 35.355469 27.710938 C 35.15625 27.945312 34.976562 28.1875 34.808594 28.445312 C 34.640625 28.699219 34.492188 28.964844 34.359375 29.238281 C 34.222656 29.511719 34.105469 29.792969 34.007812 30.078125 C 33.90625 30.367188 33.828125 30.660156 33.765625 30.960938 C 33.699219 31.257812 33.65625 31.558594 33.628906 31.863281 C 33.605469 32.164062 33.597656 32.46875 33.609375 32.773438 C 33.621094 33.078125 33.652344 33.382812 33.703125 33.683594 C 33.75 33.984375 33.820312 34.28125 33.90625 34.570312 C 33.992188 34.863281 34.09375 35.148438 34.214844 35.429688 C 34.511719 36.101562 34.894531 36.714844 35.371094 37.273438 C 35.847656 37.828125 36.398438 38.304688 37.015625 38.699219 C 37.632812 39.09375 38.296875 39.390625 39.003906 39.585938 C 39.707031 39.785156 40.429688 39.875 41.160156 39.855469 C 41.894531 39.839844 42.609375 39.714844 43.304688 39.484375 C 44 39.257812 44.648438 38.929688 45.25 38.507812 C 45.847656 38.085938 46.371094 37.585938 46.824219 37.007812 C 47.273438 36.425781 47.628906 35.796875 47.890625 35.109375 C 50.664062 35.394531 52.746094 36.308594 54.105469 37.839844 L 54.242188 38.003906 C 56.257812 40.429688 58.476562 46.660156 59.769531 53.496094 C 61.058594 60.328125 61.1875 66.878906 60.054688 69.605469 C 57.980469 74.605469 52.308594 77.964844 50.542969 78.917969 C 48.625 79.582031 42.332031 81.449219 37.246094 79.574219 C 34.472656 78.558594 29.800781 74.074219 25.617188 68.382812 C 21.433594 62.695312 18.40625 56.921875 17.992188 53.753906 C 17.707031 51.660156 18.449219 49.449219 20.1875 47.125 C 20.46875 47.238281 20.757812 47.332031 21.050781 47.410156 C 21.34375 47.488281 21.640625 47.546875 21.941406 47.585938 C 22.242188 47.628906 22.542969 47.648438 22.847656 47.652344 C 23.148438 47.65625 23.453125 47.640625 23.753906 47.609375 C 24.054688 47.574219 24.351562 47.523438 24.648438 47.449219 C 24.941406 47.378906 25.230469 47.292969 25.515625 47.1875 C 25.800781 47.082031 26.078125 46.957031 26.347656 46.816406 C 26.613281 46.675781 26.875 46.519531 27.125 46.347656 C 27.375 46.175781 27.613281 45.988281 27.839844 45.789062 C 28.066406 45.585938 28.277344 45.371094 28.480469 45.144531 C 28.679688 44.917969 28.867188 44.679688 29.035156 44.425781 C 29.207031 44.175781 29.363281 43.917969 29.5 43.648438 C 29.640625 43.378906 29.761719 43.101562 29.867188 42.816406 C 29.972656 42.53125 30.058594 42.242188 30.128906 41.945312 C 30.195312 41.652344 30.246094 41.351562 30.28125 41.050781 C 30.3125 40.75 30.328125 40.445312 30.320312 40.144531 C 30.316406 39.839844 30.292969 39.539062 30.25 39.238281 C 30.210938 38.9375 30.148438 38.640625 30.070312 38.347656 C 29.992188 38.054688 29.898438 37.769531 29.78125 37.488281 C 29.667969 37.207031 29.539062 36.933594 29.390625 36.667969 C 29.242188 36.402344 29.082031 36.148438 28.902344 35.902344 C 28.722656 35.65625 28.53125 35.425781 28.324219 35.203125 C 28.117188 34.980469 27.894531 34.773438 27.664062 34.582031 C 27.429688 34.386719 27.183594 34.207031 26.929688 34.042969 C 26.675781 33.878906 26.410156 33.730469 26.136719 33.597656 C 25.863281 33.46875 25.585938 33.355469 25.296875 33.257812 C 25.007812 33.160156 24.71875 33.082031 24.421875 33.019531 C 24.125 32.957031 23.824219 32.914062 23.519531 32.890625 C 23.21875 32.867188 22.917969 32.859375 22.613281 32.875 C 22.308594 32.886719 22.007812 32.917969 21.710938 32.96875 C 21.410156 33.019531 21.117188 33.085938 20.824219 33.171875 C 20.535156 33.257812 20.25 33.363281 19.972656 33.484375 C 19.546875 33.671875 19.140625 33.894531 18.753906 34.15625 C 18.371094 34.417969 18.011719 34.714844 17.683594 35.042969 C 17.355469 35.371094 17.058594 35.730469 16.796875 36.113281 C 16.535156 36.5 16.3125 36.90625 16.125 37.332031 C 15.941406 37.761719 15.796875 38.199219 15.695312 38.65625 C 15.59375 39.109375 15.535156 39.570312 15.519531 40.035156 C 15.503906 40.5 15.53125 40.964844 15.601562 41.421875 C 15.675781 41.882812 15.789062 42.332031 15.945312 42.769531 C 12.792969 46.617188 11.410156 50.722656 11.933594 54.675781 Z M 11.933594 54.675781 " fill-opacity="1" fill-rule="nonzero"/><path stroke-linecap="butt" transform="matrix(0.478113, -0.574367, 0.574367, 0.478113, 71.788498, 34.096458)" fill="none" stroke-linejoin="miter" d="M 0.00218482 1.998648 L 16.944894 2.000461 " stroke="#0b8fac" stroke-width="4" stroke-opacity="1" stroke-miterlimit="4"/></svg>