<svg xmlns="http://www.w3.org/2000/svg" xmlns:xlink="http://www.w3.org/1999/xlink" width="399" zoomAndPan="magnify" viewBox="0 0 299.25 94.499997" height="126" preserveAspectRatio="xMidYMid meet" version="1.0"><defs><g/></defs><path stroke-linecap="butt" transform="matrix(0.477301, -0.573392, 0.573392, 0.477301, 129.812838, 56.536557)" fill="none" stroke-linejoin="miter" d="M 0.0000674448 2.002237 L 16.946118 1.998006 " stroke="#0b8fac" stroke-width="4" stroke-opacity="1" stroke-miterlimit="4"/><g fill="#0097b2" fill-opacity="1"><g transform="translate(17.75537, 75.16701)"><g><path d="M 9.703125 -29.984375 L 9.703125 -0.53125 C 9.703125 -0.296875 9.9375 0 10.34375 0 L 17.921875 0 C 18.34375 0 18.640625 -0.296875 18.640625 -0.53125 L 18.640625 -29.984375 Z M 0.640625 -38.96875 L 27.625 -38.96875 C 28.03125 -38.96875 28.28125 -39.203125 28.28125 -39.5 L 28.28125 -46.5 C 28.28125 -46.734375 28.03125 -47.03125 27.625 -47.03125 L 0.640625 -47.03125 C 0.296875 -47.03125 0 -46.734375 0 -46.5 L 0 -39.5 C 0 -39.203125 0.296875 -38.96875 0.640625 -38.96875 Z M 0.640625 -38.96875 "/></g></g></g><g fill="#0097b2" fill-opacity="1"><g transform="translate(50.732323, 75.16701)"><g><path d="M 32.09375 -0.765625 C 29.15625 -7.28125 25.984375 -13.75 23.046875 -20.390625 C 27.75 -22.109375 31.6875 -25.859375 31.6875 -33.03125 C 31.6875 -46.90625 18.453125 -47.03125 15.8125 -47.03125 L 0.59375 -47.03125 C 0.296875 -47.03125 0 -46.734375 0 -46.5 L 0 -38.5 L 15.8125 -38.5 C 17.21875 -38.5 22.75 -38.203125 22.75 -33.03125 C 22.75 -27.859375 17.75 -27.625 15.8125 -27.625 L 0 -27.625 L 0 -0.53125 C 0 -0.296875 0.296875 0 0.59375 0 L 8.28125 0 C 8.640625 0 8.9375 -0.296875 8.9375 -0.53125 L 8.9375 -18.984375 L 13.984375 -18.984375 L 22.578125 -0.359375 C 22.625 -0.171875 22.984375 0 23.15625 0 L 31.5625 0 C 32.03125 0 32.265625 -0.359375 32.09375 -0.765625 Z M 32.09375 -0.765625 "/></g></g></g><g fill="#0097b2" fill-opacity="1"><g transform="translate(87.823989, 75.16701)"><g><path d="M 22.34375 -8.765625 L 9 -8.765625 L 9 -19.34375 L 27.453125 -19.34375 C 27.796875 -19.34375 28.09375 -19.640625 28.09375 -19.875 L 28.09375 -27.328125 C 28.09375 -27.625 27.796875 -27.859375 27.453125 -27.859375 L 9 -27.859375 L 9 -38.5 L 22.34375 -38.5 L 22.34375 -47.03125 L 0.640625 -47.03125 C 0.296875 -47.03125 0 -46.734375 0 -46.5 L 0 -0.53125 C 0 -0.296875 0.296875 0 0.640625 0 L 22.34375 0 Z M 22.34375 -8.765625 "/></g></g></g><g fill="#0097b2" fill-opacity="1"><g transform="translate(120.624589, 75.16701)"><g><path d="M 36.921875 -0.703125 L 19.046875 -46.671875 C 18.875 -47.140625 18.046875 -47.140625 17.875 -46.671875 L 0.0625 -0.703125 C -0.125 -0.359375 0.125 0 0.640625 0 L 8.703125 0 C 8.9375 0 9.234375 -0.125 9.28125 -0.359375 L 18.453125 -26.5625 L 27.75 -0.359375 C 27.796875 -0.125 28.09375 0 28.28125 0 L 36.390625 0 C 36.796875 0 37.09375 -0.359375 36.921875 -0.703125 Z M 36.921875 -0.703125 "/></g></g></g><g fill="#0097b2" fill-opacity="1"><g transform="translate(162.712687, 75.16701)"><g><path d="M 9.703125 -29.984375 L 9.703125 -0.53125 C 9.703125 -0.296875 9.9375 0 10.34375 0 L 17.921875 0 C 18.34375 0 18.640625 -0.296875 18.640625 -0.53125 L 18.640625 -29.984375 Z M 0.640625 -38.96875 L 27.625 -38.96875 C 28.03125 -38.96875 28.28125 -39.203125 28.28125 -39.5 L 28.28125 -46.5 C 28.28125 -46.734375 28.03125 -47.03125 27.625 -47.03125 L 0.640625 -47.03125 C 0.296875 -47.03125 0 -46.734375 0 -46.5 L 0 -39.5 C 0 -39.203125 0.296875 -38.96875 0.640625 -38.96875 Z M 0.640625 -38.96875 "/></g></g></g><g fill="#7bc1b7" fill-opacity="1"><g transform="translate(195.69963, 75.16701)"><g><path d="M 25.390625 -8.765625 L 0 -8.765625 L 0 -0.53125 C 0 -0.296875 0.296875 0 0.640625 0 L 25.390625 0 C 25.8125 0 26.046875 -0.296875 26.046875 -0.53125 L 26.046875 -8.171875 C 26.046875 -8.46875 25.8125 -8.765625 25.390625 -8.765625 Z M 9 -17.75 L 9 -46.5 C 9 -46.734375 8.765625 -47.03125 8.40625 -47.03125 L 0.640625 -47.03125 C 0.296875 -47.03125 0 -46.734375 0 -46.5 L 0 -17.75 Z M 9 -17.75 "/></g></g></g><g fill="#7bc1b7" fill-opacity="1"><g transform="translate(226.3841, 75.16701)"><g><path d="M 19.15625 -8.046875 L 14.453125 -8.046875 L 14.453125 -47.03125 L 5.46875 -47.03125 L 5.46875 -8.046875 L 0.640625 -8.046875 C 0.296875 -8.046875 0 -7.8125 0 -7.53125 L 0 -0.53125 C 0 -0.296875 0.296875 0 0.640625 0 L 19.15625 0 C 19.578125 0 19.8125 -0.296875 19.8125 -0.53125 L 19.8125 -7.53125 C 19.8125 -7.8125 19.578125 -8.046875 19.15625 -8.046875 Z M 19.15625 -8.046875 "/></g></g></g><g fill="#7bc1b7" fill-opacity="1"><g transform="translate(250.48503, 75.16701)"><g><path d="M 22.34375 -8.765625 L 9 -8.765625 L 9 -19.34375 L 27.453125 -19.34375 C 27.796875 -19.34375 28.09375 -19.640625 28.09375 -19.875 L 28.09375 -27.328125 C 28.09375 -27.625 27.796875 -27.859375 27.453125 -27.859375 L 9 -27.859375 L 9 -38.5 L 22.34375 -38.5 L 22.34375 -47.03125 L 0.640625 -47.03125 C 0.296875 -47.03125 0 -46.734375 0 -46.5 L 0 -0.53125 C 0 -0.296875 0.296875 0 0.640625 0 L 22.34375 0 Z M 22.34375 -8.765625 "/></g></g></g></svg>